<svg width="750" height="203" viewBox="0 0 750 203" fill="none" xmlns="http://www.w3.org/2000/svg">
<g clip-path="url(#clip0_36914_4240)">
<mask id="mask0_36914_4240" style="mask-type:luminance" maskUnits="userSpaceOnUse" x="0" y="0" width="750" height="203">
<path d="M750 0H0V203H750V0Z" fill="white"/>
</mask>
<g mask="url(#mask0_36914_4240)">
<path d="M88.7489 127.398L81.2489 162.067H54.1656L79.1656 40.9354H104.166L98.7489 71.4272H142.499L149.582 35.5054C152.499 18.7976 144.999 7.9375 127.916 7.9375H67.9156C51.2489 7.9375 38.7489 17.1268 35.4156 34.67L9.58225 167.079C5.83225 183.787 12.9156 190.053 26.6656 190.053H96.6656C109.999 190.053 121.249 182.117 124.999 166.244L133.332 126.981H88.7489V127.398ZM186.666 163.32L197.082 113.197H227.916L218.332 163.32H186.666ZM252.082 82.705H204.166L212.916 40.9354H284.582L290.832 7.9375H175.416L136.666 192.141H231.666C247.499 192.141 259.166 184.205 263.332 167.497L275.416 108.602C277.916 93.1474 270.832 82.705 252.082 82.705ZM356.666 163.32H326.666L351.249 40.1H381.249L356.666 163.32ZM403.749 7.9375H341.249C325.832 7.9375 313.749 17.1268 309.582 35.5054L281.249 167.079C278.332 181.281 284.582 191.724 300.416 191.724H371.249C386.666 191.724 395.416 184.205 399.582 168.75L424.166 39.6823C428.749 19.2153 423.332 7.9375 403.749 7.9375ZM503.749 97.742H475.832L486.666 40.1H514.166L503.749 97.742ZM541.666 7.9375H447.916L410.416 191.724H434.582L444.166 149.536C444.582 146.612 447.082 144.524 449.999 144.524H467.499L471.249 126.563H517.082C531.249 126.563 544.166 121.133 548.749 102.754L561.666 35.5054C564.166 20.4684 557.499 7.9375 541.666 7.9375ZM654.582 144.524L662.082 108.184C664.166 95.2359 660.416 83.5404 645.416 83.5404H612.916L627.082 7.9375H583.332L556.249 144.106H601.249L607.499 113.197H628.749L622.916 144.524H654.582ZM696.249 7.9375L669.166 144.524H712.916L738.749 7.9375H696.249Z" fill="url(#paint0_linear_36914_4240)"/>
<path d="M452.307 153H490.023L482.224 191.997H469.299L474.926 163.195H463.059L457.433 191.997H444.508L452.307 153ZM510.623 192.888C498.479 192.888 490.846 185.702 490.846 175.451C490.846 161.691 501.097 152.109 515.414 152.109C527.559 152.109 535.191 159.295 535.191 169.546C535.191 183.306 524.941 192.888 510.623 192.888ZM511.738 182.248C518.2 182.248 521.932 176.733 521.932 170.326C521.932 165.813 519.091 162.749 514.3 162.749C507.838 162.749 504.105 168.265 504.105 174.671C504.105 179.184 506.947 182.248 511.738 182.248ZM595.95 153H607.148L599.46 191.997H587.482L590.936 174.226L579.961 188.487H574.167L568.151 174.448L564.641 191.997H552.663L560.463 153H571.159L579.627 173.724L595.95 153ZM649.592 153H660.79L653.102 191.997H641.124L644.578 174.226L633.604 188.487H627.81L621.793 174.448L618.283 191.997H606.306L614.105 153H624.802L633.269 173.724L649.592 153ZM690.589 191.997L689.307 185.2H674.433L670.533 191.997H656.661L681.508 153H694.433L703.681 191.997H690.589ZM679.837 175.73H687.469L685.575 165.758L679.837 175.73Z" fill="#618EC1"/>
</g>
</g>
<defs>
<linearGradient id="paint0_linear_36914_4240" x1="397.916" y1="190.011" x2="397.916" y2="7.9375" gradientUnits="userSpaceOnUse">
<stop stop-color="#99989A"/>
<stop offset="0.8" stop-color="white"/>
</linearGradient>
<clipPath id="clip0_36914_4240">
<rect width="750" height="203" fill="white"/>
</clipPath>
</defs>
</svg>
